# xmcd
#
# Track frame offsets:
#	182
#	12497
#	21805
#	27742
#	38550
#	48922
#	62222
#	75715
#	86220
#	95010
#	110285
#	121337
#	136615
#	145727
#	160417
#	165172
#	175452
#	183977
#	202222
#	216750
#	225290
#	234792
#	245865
#	254817
#	270810
#
# Disc length: 3761 seconds
#
# Revision: 2
# Processed by: cddbd v1.4PL0 Copyright (c) Steve Scherf et al.
# Submitted via: audiograbber 1.80.04
#
DISCID=550eaf19
DTITLE=Fats Domino - Fats Domino Collection
DYEAR=1900
DGENRE=Blues
TTITLE0=Blueberry Hill
TTITLE1=I'm Walkin
TTITLE2=Blue Monday
TTITLE3=Kansas City
TTITLE4='Aint That A Shame
TTITLE5=Heartbreak Hill
TTITLE6=C.C. Rider
TTITLE7=Hello Josephine
TTITLE8=Red Sails In The Sunset
TTITLE9=Jambalya (On The Bayou)
TTITLE10=I Want To Walk You Home
TTITLE11=Lawdy Miss Clawdy
TTITLE12=Let The Four Winds Blow
TTITLE13=I'm In Love Again
TTITLE14=Whole Lotta Lovin'
TTITLE15=I'm Gonna Be A Wheel Someday
TTITLE16=Be My Guest
TTITLE17=Blues By Fats
TTITLE18=I'm In The Mood For Love
TTITLE19=I'm Ready
TTITLE20=My Blue Heaven
TTITLE21=The Fat Man
TTITLE22=Walkin' To New Orleans
TTITLE23=Deep In The Heart Of Texas
TTITLE24=When The Saints Go Marchin' In
EXTD=
EXTT0=
EXTT1=
EXTT2=
EXTT3=
EXTT4=
EXTT5=
EXTT6=
EXTT7=
EXTT8=
EXTT9=
EXTT10=
EXTT11=
EXTT12=
EXTT13=
EXTT14=
EXTT15=
EXTT16=
EXTT17=
EXTT18=
EXTT19=
EXTT20=
EXTT21=
EXTT22=
EXTT23=
EXTT24=
PLAYORDER=
